***************************************************************

[IMG]http://www.torrentforce.org/imghost/3/greyshadow_tfbanner.png[/IMG]

***************************************************************

[IMG]http://www.torrentforce.org/imghost/4/greyshadow_zookeeper.jpg[/IMG]

***************************************************************

FILM TITLE: Zookeeper (2011)

***************************************************************

Genre: Comedy | Family | Romance    

Rated PG for some rude and suggestive humor, and language

Release: 29 July 2011 (UK) 

Director: Frank Coraci

Writer: Nick Bakay (screenplay), Rock Reuben (screenplay)

Stars: Kevin James, Rosario Dawson and Leslie Bibb

Country: USA

Language: English

Plot:
A group of zoo animals decide to break their code of silence in 
order to help their lovable zoo keeper find love -- without opting 
to leave his current job for something more illustrious.

IMDB Rating: 4.7/10 from 10,680 users   Metascore: 30/100 
 
http://www.imdb.com/title/tt1222817/ 

****************************************************************

[IMG]http://www.torrentforce.org/imghost/4/greyshadow_zookeeperxvid1.png[/IMG]
[IMG]http://www.torrentforce.org/imghost/4/greyshadow_zookeeperxvid2.png[/IMG]
[IMG]http://www.torrentforce.org/imghost/4/greyshadow_zookeeperxvid3.png[/IMG]
[IMG]http://www.torrentforce.org/imghost/4/greyshadow_zookeeperxvid4.png[/IMG]

****************************************************************

[IMG]http://www.torrentforce.org/imghost/2/greyshadow_mediainfo.png[/IMG]
General
Complete name                    : Zookeeper 2011 720p BDRip x264 ac3 (mp4) [TFRG].mp4
Format                           : MPEG-4
Format profile                   : Base Media
Codec ID                         : isom
File size                        : 2.88 GiB
Duration                         : 1h 41mn
Overall bit rate                 : 4042 Kbps
Encoded date                     : UTC 2011-10-22 19:20:41
Tagged date                      : UTC 2011-10-22 19:20:41

Video
ID                               : 1
Format                           : AVC
Format/Info                      : Advanced Video Codec
Format profile                   : High@L4.1
Format settings, CABAC           : Yes
Format settings, ReFrames        : 12 frames
Codec ID                         : avc1
Codec ID/Info                    : Advanced Video Coding
Duration                         : 1h 41mn
Bit rate                         : 3401 Kbps
Maximum bit rate                 : 15.2 Mbps
Width                            : 1280 pixels
Height                           : 528 pixels
Display aspect ratio             : 2.40:1
Frame rate mode                  : Constant
Frame rate                       : 23.976 fps
Color space                      : YUV
Chroma subsampling               : 4:2:0
Bit depth                        : 8 bits
Scan type                        : Progressive
Bits/(Pixel*Frame)               : 0.210
Stream size                      : 2.42 GiB (84%)
Title                            : AVC MPEG4 Video
Writing library                  : x264 core 118 r2085 8a62835
Encoded date                     : UTC 2011-10-21 21:16:17
Tagged date                      : UTC 2011-10-22 19:21:38
Color primaries                  : BT.709-5, BT.1361, IEC 61966-2-4, SMPTE RP177
Transfer characteristics         : BT.709-5, BT.1361
Matrix coefficients              : BT.709-5, BT.1361, IEC 61966-2-4 709, SMPTE RP177

Audio
ID                               : 2
Format                           : AC-3
Format/Info                      : Audio Coding 3
Mode extension                   : CM (complete main)
Codec ID                         : ac-3
Duration                         : 1h 41mn
Bit rate mode                    : Constant
Bit rate                         : 640 Kbps
Channel(s)                       : 6 channels
Channel positions                : Front: L C R, Side: L R, LFE
Sampling rate                    : 48.0 KHz
Bit depth                        : 16 bits
Compression mode                 : Lossy
Stream size                      : 466 MiB (16%)
Title                            : AC3 5.1 Audio
Language                         : English
Encoded date                     : UTC 2011-10-22 19:21:23
Tagged date                      : UTC 2011-10-22 19:21:38

****************************************************************

Video Source: Zookeeper 2011 BluRay 1080p AVC DTS-HD MA5 1-CHDBits (37.21GB)

Thanks: (chdbits.org)

****************************************************************

I provide a small sample, so please download this to check your 
compatibility first if you are unsure.

****************************************************************

7th October 2011

I am re-introducing my warning to all downloaders, please please
please use a proxy or vpn service, it is the only secure way to
keep your own ip address from being seen during downloading or
uploading/seeding, this WILL stop isp letters, as for advice to 
which one then thats simple, vpntunnel.se server based in Sweden 
is the right one to use, I have cancelled my vpn and transfered 
to a Swedish one already !!! enough said. 

****************************************************************

A big thanks to all the sites out there who care and share and
who make it possible for you to download this torrent for free.

Greetz to Westy, Ripwyn, mustang, noir, Blackjesus, MXMG, The Stig 
and all the other outstanding members of our community of file 
sharers and a special mention to our friends at 1337x.

****************************************************************